HIERARCHY
ROOT Hips
{
  OFFSET 5.84602e-005 68.8428 3.50346
  CHANNELS 6 Xposition Yposition Zposition Zrotation Xrotation Yrotation
  JOINT Spine
  {
    OFFSET 0 8.597 -4.6522
    CHANNELS 3 Zrotation Xrotation Yrotation
    JOINT Spine1
    {
      OFFSET 0 7.8454 0.4098
      CHANNELS 3 Zrotation Xrotation Yrotation
      JOINT Spine2
      {
        OFFSET 0 9.7078 -2.1609
        CHANNELS 3 Zrotation Xrotation Yrotation
        JOINT Neck
        {
          OFFSET 0 21.8761 -0.4549
          CHANNELS 3 Zrotation Xrotation Yrotation
          JOINT Head
          {
            OFFSET 0 12.3537 3.3602
            CHANNELS 3 Zrotation Xrotation Yrotation
            End Site
            {
              OFFSET 0.0001 18.9506 0.5657
            }
          }
        }
        JOINT LeftShoulder
        {
          OFFSET 2.2086 21.1115 7.2329
          CHANNELS 3 Zrotation Xrotation Yrotation
          JOINT LeftArm
          {
            OFFSET 13.1193 3.0282 -4.8998
            CHANNELS 3 Zrotation Xrotation Yrotation
            JOINT LeftForeArm
            {
              OFFSET 27.4081 -0.0973053 -0.2375
              CHANNELS 3 Zrotation Xrotation Yrotation
              JOINT LeftHand
              {
                OFFSET 22.8641 0.0662994 -0.1369
                CHANNELS 3 Zrotation Xrotation Yrotation
                JOINT LeftHandIndex1
                {
                  OFFSET 8.8614 0.775009 2.4612
                  CHANNELS 3 Zrotation Xrotation Yrotation
                  JOINT LeftHandIndex2
                  {
                    OFFSET 3.3146 -0.808304 0.5841
                    CHANNELS 3 Zrotation Xrotation Yrotation
                    JOINT LeftHandIndex3
                    {
                      OFFSET 2.2628 -0.552002 0.3989
                      CHANNELS 3 Zrotation Xrotation Yrotation
                      End Site
                      {
                        OFFSET 1.6102 -0.4807 0.2612
                      }
                    }
                  }
                }
                JOINT LeftHandMiddle1
                {
                  OFFSET 8.9937 0.895004 0.2143
                  CHANNELS 3 Zrotation Xrotation Yrotation
                  JOINT LeftHandMiddle2
                  {
                    OFFSET 4.0984 0.0113983 -0.0242
                    CHANNELS 3 Zrotation Xrotation Yrotation
                    JOINT LeftHandMiddle3
                    {
                      OFFSET 2.2716 0.00689697 -0.0138001
                      CHANNELS 3 Zrotation Xrotation Yrotation
                      End Site
                      {
                        OFFSET 2.0404 -0.1441 0.0027
                      }
                    }
                  }
                }
                JOINT LeftHandRing1
                {
                  OFFSET 8.5234 0.597198 -2.0164
                  CHANNELS 3 Zrotation Xrotation Yrotation
                  JOINT LeftHandRing2
                  {
                    OFFSET 3.7188 -0.188293 -0.2328
                    CHANNELS 3 Zrotation Xrotation Yrotation
                    JOINT LeftHandRing3
                    {
                      OFFSET 2.1191 -0.106598 -0.1332
                      CHANNELS 3 Zrotation Xrotation Yrotation
                      End Site
                      {
                        OFFSET 1.8737 -0.2304 -0.0886
                      }
                    }
                  }
                }
                JOINT LeftHandPinky1
                {
                  OFFSET 7.9094 -0.601089 -3.4825
                  CHANNELS 3 Zrotation Xrotation Yrotation
                  JOINT LeftHandPinky2
                  {
                    OFFSET 2.2874 -0.477005 -0.6314
                    CHANNELS 3 Zrotation Xrotation Yrotation
                    JOINT LeftHandPinky3
                    {
                      OFFSET 1.6774 -0.349396 -0.4633
                      CHANNELS 3 Zrotation Xrotation Yrotation
                      End Site
                      {
                        OFFSET 1.4888 -0.4091 -0.3416
                      }
                    }
                  }
                }
                JOINT LeftHandThumb1
                {
                  OFFSET 1.833 -1.3875 1.3896
                  CHANNELS 3 Zrotation Xrotation Yrotation
                  JOINT LeftHandThumb2
                  {
                    OFFSET 3.4129 -1.121 2.5732
                    CHANNELS 3 Zrotation Xrotation Yrotation
                    JOINT LeftHandThumb3
                    {
                      OFFSET 2.2474 -0.804199 1.6192
                      CHANNELS 3 Zrotation Xrotation Yrotation
                      End Site
                      {
                        OFFSET 1.6527 -0.5689 1.1317
                      }
                    }
                  }
                }
              }
            }
          }
        }
        JOINT RightShoulder
        {
          OFFSET -2.2086 21.1115 7.2329
          CHANNELS 3 Zrotation Xrotation Yrotation
          JOINT RightArm
          {
            OFFSET -13.1216 3.0287 -4.9007
            CHANNELS 3 Zrotation Xrotation Yrotation
            JOINT RightForeArm
            {
              OFFSET -27.4081 -0.0973053 -0.2375
              CHANNELS 3 Zrotation Xrotation Yrotation
              JOINT RightHand
              {
                OFFSET -22.8641 0.0664063 -0.1369
                CHANNELS 3 Zrotation Xrotation Yrotation
                JOINT RightHandIndex1
                {
                  OFFSET -8.8614 0.774994 2.4612
                  CHANNELS 3 Zrotation Xrotation Yrotation
                  JOINT RightHandIndex2
                  {
                    OFFSET -3.3146 -0.808304 0.5841
                    CHANNELS 3 Zrotation Xrotation Yrotation
                    JOINT RightHandIndex3
                    {
                      OFFSET -2.2628 -0.552002 0.3989
                      CHANNELS 3 Zrotation Xrotation Yrotation
                      End Site
                      {
                        OFFSET -1.6102 -0.4807 0.2612
                      }
                    }
                  }
                }
                JOINT RightHandMiddle1
                {
                  OFFSET -8.9937 0.894989 0.2143
                  CHANNELS 3 Zrotation Xrotation Yrotation
                  JOINT RightHandMiddle2
                  {
                    OFFSET -4.0984 0.0113983 -0.0242
                    CHANNELS 3 Zrotation Xrotation Yrotation
                    JOINT RightHandMiddle3
                    {
                      OFFSET -2.2716 0.00691223 -0.0138001
                      CHANNELS 3 Zrotation Xrotation Yrotation
                      End Site
                      {
                        OFFSET -2.0404 -0.1441 0.0027
                      }
                    }
                  }
                }
                JOINT RightHandRing1
                {
                  OFFSET -8.5234 0.597198 -2.0164
                  CHANNELS 3 Zrotation Xrotation Yrotation
                  JOINT RightHandRing2
                  {
                    OFFSET -3.7188 -0.188309 -0.2328
                    CHANNELS 3 Zrotation Xrotation Yrotation
                    JOINT RightHandRing3
                    {
                      OFFSET -2.1191 -0.106598 -0.1332
                      CHANNELS 3 Zrotation Xrotation Yrotation
                      End Site
                      {
                        OFFSET -1.8737 -0.2304 -0.0886
                      }
                    }
                  }
                }
                JOINT RightHandPinky1
                {
                  OFFSET -7.9094 -0.601105 -3.4825
                  CHANNELS 3 Zrotation Xrotation Yrotation
                  JOINT RightHandPinky2
                  {
                    OFFSET -2.2874 -0.477005 -0.6314
                    CHANNELS 3 Zrotation Xrotation Yrotation
                    JOINT RightHandPinky3
                    {
                      OFFSET -1.6774 -0.349396 -0.4633
                      CHANNELS 3 Zrotation Xrotation Yrotation
                      End Site
                      {
                        OFFSET -1.4888 -0.4091 -0.3416
                      }
                    }
                  }
                }
                JOINT RightHandThumb1
                {
                  OFFSET -1.833 -1.38751 1.3896
                  CHANNELS 3 Zrotation Xrotation Yrotation
                  JOINT RightHandThumb2
                  {
                    OFFSET -3.41299 -1.12099 2.5732
                    CHANNELS 3 Zrotation Xrotation Yrotation
                    JOINT RightHandThumb3
                    {
                      OFFSET -2.24741 -0.804108 1.6192
                      CHANNELS 3 Zrotation Xrotation Yrotation
                      End Site
                      {
                        OFFSET -1.6527 -0.5689 1.1317
                      }
                    }
                  }
                }
              }
            }
          }
        }
      }
    }
  }
  JOINT RightUpLeg
  {
    OFFSET -9.1966 3.8861 -0.7581
    CHANNELS 3 Zrotation Xrotation Yrotation
    JOINT RightLeg
    {
      OFFSET -0.7359 -41.0265 0
      CHANNELS 3 Zrotation Xrotation Yrotation
      JOINT RightFoot
      {
        OFFSET 0 -40.2855 0
        CHANNELS 3 Zrotation Xrotation Yrotation
        JOINT RightToeBase
        {
          OFFSET 0 -5.6122 11.7359
          CHANNELS 3 Zrotation Xrotation Yrotation
          End Site
          {
            OFFSET 0 0 7.8731
          }
        }
      }
    }
  }
  JOINT LeftUpLeg
  {
    OFFSET 9.1965 3.8864 -0.7581
    CHANNELS 3 Zrotation Xrotation Yrotation
    JOINT LeftLeg
    {
      OFFSET 0.7359 -41.0268 0
      CHANNELS 3 Zrotation Xrotation Yrotation
      JOINT LeftFoot
      {
        OFFSET 0 -40.2855 0
        CHANNELS 3 Zrotation Xrotation Yrotation
        JOINT LeftToeBase
        {
          OFFSET 0 -5.6122 11.7359
          CHANNELS 3 Zrotation Xrotation Yrotation
          End Site
          {
            OFFSET 0 0 7.8731
          }
        }
      }
    }
  }
}
MOTION
Frames:	4
Frame Time:	0.0333333
5.84602e-005 68.8428 3.50346 0 0 -0 0 0 -0 0 0 -0 0 0 -0 0 0 -0 0 0 -0 0 0 -0 0 0 -0 0 0 -0 0 0 -0 0 0 -0 0 0 -0 0 0 -0 0 0 -0 -0.0146107 -8.87603e-005 -2.63497e-007 2.99804e-018 -2.42657e-020 -1.42182e-022 0 0 -0 -0.0187562 -0.001176 5.858e-005 5.06224e-018 3.88251e-019 1.21329e-020 0 0 -0 -0.012269 -0.00324817 0.000675346 -1.74678e-018 3.88251e-019 -0 0 0 -0 0 0 -0 0 0 -0 0 0 -0 0 0 -0 0 0 -0 0 0 -0 0 0 -0 0 0 -0 0 0 -0 0 0 -0 0.0149955 -9.10982e-005 2.64101e-007 -9.69331e-018 1.21329e-020 -4.7394e-023 0 0 -0 0.0189956 -0.00119102 -5.96516e-005 -5.41541e-019 0 2.42657e-020 0 0 -0 0.0122698 -0.00324857 -0.000673756 -2.00796e-019 0 -1.94126e-019 0 0 -0 0 0 -0 0 0 -0 3.39842 1.33031 -0.0637918 -5.65207e-008 0.834868 -0.000436188 -3.39935 -2.16518 -0.0642563 -8.89002e-024 -1.18485e-023 -1.48106e-024 -3.39844 1.35642 0.0640283 -3.18788e-007 0.782166 -0.000588827 3.39931 -2.13858 0.0634662 1.1399e-023 0 -0 
-83.9352 0.684874 6.28915 -160.819 -89.9972 -71.8202 -0.328206 -0.251889 -0.2801 -0.657637 -0.502169 -0.561629 -0.657651 -0.502177 -0.561652 3.82828 -0.785839 -0.0104201 19.1606 -1.65067 -0.145226 13.5277 0.843232 6.37459 -74.661 0.999315 -105.262 -17.2742 -27.5188 -24.7878 -73.3696 10.1882 17.8895 5.27903e-007 1.08728e-006 -1.16539e-006 4.33734e-007 4.50532e-006 -1.56223e-007 3.97569e-015 -9.54166e-015 -2.38542e-015 5.27903e-007 1.08728e-006 -1.16539e-006 -0.0145623 -8.41453e-005 1.87002e-006 -1.59028e-015 6.36111e-015 2.38542e-015 5.27903e-007 1.08728e-006 -1.16539e-006 -0.0187427 -0.00116725 6.23512e-005 -1.94212e-030 3.49861e-014 3.18055e-015 5.27903e-007 1.08728e-006 -1.16539e-006 -0.012221 -0.00323347 0.000671729 1.02739e-006 -2.39314e-006 -2.31646e-006 5.27903e-007 1.08728e-006 -1.16539e-006 4.33734e-007 4.50532e-006 -1.56223e-007 3.97569e-015 -9.54166e-015 -2.38542e-015 -18.2094 1.54559 -8.1136 74.4262 0.85782 107.086 24.5101 -27.2901 46.9267 51.9968 1.2455e-006 7.40749e-006 1.59028e-015 6.36111e-015 3.18055e-015 -4.77083e-015 0 4.77083e-015 -1.59028e-015 3.18055e-015 3.18055e-015 1.59028e-015 6.36111e-015 3.18055e-015 0.0150001 -9.28738e-005 7.51003e-008 -4.77083e-015 -1.27222e-014 -0 1.59028e-015 6.36111e-015 3.18055e-015 0.0189372 -0.00118739 -5.91802e-005 1.59028e-015 -6.36111e-015 -3.18055e-015 1.59028e-015 6.36111e-015 3.18055e-015 0.0122915 -0.0032521 -0.000676112 1.50312e-006 5.19516e-007 -5.29577e-007 1.59028e-015 6.36111e-015 3.18055e-015 -4.77083e-015 0 4.77083e-015 -1.59028e-015 3.18055e-015 3.18055e-015 -50.9744 -28.3358 -79.2425 154.413 40.8955 -149.235 8.75453 -1.29788 22.061 -4.88395e-008 2.14201e-008 1.77821e-009 -14.5914 -14.5061 -9.794 15.5098 59.9942 1.71978 87.24 3.36672 -58.3124 8.95256e-008 -4.24664e-007 -8.47445e-007 
-83.9352 0.684874 6.28915 -160.819 -89.9972 -71.8202 -0.328206 -0.251889 -0.2801 -0.657637 -0.502169 -0.561629 -0.657651 -0.502177 -0.561652 4.1383 -0.77096 -0.00816135 19.3546 -1.71147 -0.245633 13.5277 0.843232 6.37459 -74.661 0.999315 -105.262 -17.2742 -27.5188 -24.7878 -73.3696 10.1882 17.8895 5.27903e-007 1.08728e-006 -1.16539e-006 4.33734e-007 4.50532e-006 -1.56223e-007 3.97569e-015 -9.54166e-015 -2.38542e-015 5.27903e-007 1.08728e-006 -1.16539e-006 -0.0145623 -8.41453e-005 1.87002e-006 -1.59028e-015 6.36111e-015 2.38542e-015 5.27903e-007 1.08728e-006 -1.16539e-006 -0.0187427 -0.00116725 6.23512e-005 -1.94212e-030 3.49861e-014 3.18055e-015 5.27903e-007 1.08728e-006 -1.16539e-006 -0.012221 -0.00323347 0.000671729 1.02739e-006 -2.39314e-006 -2.31646e-006 5.27903e-007 1.08728e-006 -1.16539e-006 4.33734e-007 4.50532e-006 -1.56223e-007 3.97569e-015 -9.54166e-015 -2.38542e-015 -18.2094 1.54559 -8.1136 74.4262 0.85782 107.086 24.5101 -27.2901 46.9267 51.9968 1.2455e-006 7.40749e-006 1.59028e-015 6.36111e-015 3.18055e-015 -4.77083e-015 0 4.77083e-015 -1.59028e-015 3.18055e-015 3.18055e-015 1.59028e-015 6.36111e-015 3.18055e-015 0.0150001 -9.28738e-005 7.51003e-008 -4.77083e-015 -1.27222e-014 -0 1.59028e-015 6.36111e-015 3.18055e-015 0.0189372 -0.00118739 -5.91802e-005 1.59028e-015 -6.36111e-015 -3.18055e-015 1.59028e-015 6.36111e-015 3.18055e-015 0.0122915 -0.0032521 -0.000676112 1.50312e-006 5.19516e-007 -5.29577e-007 1.59028e-015 6.36111e-015 3.18055e-015 -4.77083e-015 0 4.77083e-015 -1.59028e-015 3.18055e-015 3.18055e-015 -50.9744 -28.3358 -79.2425 154.413 40.8955 -149.235 8.75453 -1.29788 22.061 -4.88395e-008 2.14201e-008 1.77821e-009 -14.5914 -14.5061 -9.794 15.5098 59.9942 1.71975 87.24 3.36672 -58.3124 3.97863e-008 4.03331e-009 1.55821e-009 
-83.9352 0.684874 6.28915 -160.819 -89.9972 -71.8202 -0.328206 -0.251889 -0.2801 -0.657637 -0.502169 -0.561629 -0.657651 -0.502177 -0.561652 4.44836 -0.755941 -0.00593049 19.5485 -1.77261 -0.34586 13.5277 0.843232 6.37459 -74.6609 0.999315 -105.262 -17.2742 -27.5188 -24.7878 -73.3697 10.1882 17.8895 6.36111e-015 0 7.15625e-015 8.74653e-015 6.36111e-015 8.74653e-015 5.56597e-015 6.36111e-015 9.54166e-015 6.36111e-015 0 7.15625e-015 -0.0146084 -8.9373e-005 -1.00188e-006 7.95139e-016 -1.27222e-014 -2.38542e-015 6.36111e-015 0 7.15625e-015 -0.0187578 -0.00117315 5.83464e-005 -1.32417e-031 3.18055e-015 2.38542e-015 6.36111e-015 0 7.15625e-015 -0.0122131 -0.00323652 0.000677415 -2.38542e-015 3.18055e-015 -2.38542e-015 6.36111e-015 0 7.15625e-015 8.74653e-015 6.36111e-015 8.74653e-015 5.56597e-015 6.36111e-015 9.54166e-015 -18.2094 1.54559 -8.1136 74.4262 0.857824 107.086 24.5101 -27.2901 46.9267 51.9968 -2.05294e-006 -4.42635e-006 1.59028e-015 3.18055e-015 -0 1.59028e-015 -3.18055e-015 1.59028e-015 -1.59028e-015 3.18055e-015 1.59028e-015 1.59028e-015 3.18055e-015 -0 0.0150052 -8.90242e-005 5.74326e-007 1.59028e-015 0 1.59028e-015 1.59028e-015 3.18055e-015 -0 0.0190235 -0.00119547 -6.43588e-005 7.95139e-015 6.36111e-015 7.95139e-015 1.59028e-015 3.18055e-015 -0 0.012296 -0.00324947 -0.000674643 1.59028e-015 -9.54166e-015 -3.18055e-015 1.59028e-015 3.18055e-015 -0 1.59028e-015 -3.18055e-015 1.59028e-015 -1.59028e-015 3.18055e-015 1.59028e-015 -50.9743 -28.3358 -79.2425 154.413 40.8955 -149.235 8.75453 -1.29789 22.061 -7.95139e-016 7.95139e-016 -1.90833e-014 -14.5914 -14.5061 -9.794 15.5098 59.9942 1.71974 87.24 3.36672 -58.3124 7.95726e-008 8.06661e-009 3.1164e-009 
